<svg width="514" height="514" viewBox="0 0 514 514" fill="none" xmlns="http://www.w3.org/2000/svg">
<path d="M74 423L51 338L155.5 293H257L333 353L332.5 374.5L257 361.5L183 455L145.5 444L120.5 420.5L105.5 433L74 423Z" fill="url(#paint0_linear_180_62)"/>
<path d="M333 353L284 327.5L290 337L277.875 334.5L261 321L367.5 300L463 338L333 353Z" fill="url(#paint1_linear_180_62)"/>
<path d="M142.5 349L208 314H236L181 353L142.5 349Z" fill="url(#paint2_linear_180_62)"/>
<path d="M182.5 436L135 399L181.5 374.5L225 341.5L232.5 380L182.5 436Z" fill="url(#paint3_linear_180_62)"/>
<path d="M86 342L155 306H116L51 338L86 342Z" fill="url(#paint4_linear_180_62)"/>
<path d="M290 337L277.875 334.5H228.5L191.5 354L257 361.5L322.5 354L290 337Z" fill="url(#paint5_linear_180_62)"/>
<path d="M372.5 444.5L289.5 394V380L322 369L332.5 374.5L378 368L372.5 444.5Z" fill="url(#paint6_linear_180_62)"/>
<path d="M192.5 438L226 401H289.5L321.5 438L257 454L192.5 438Z" fill="url(#paint7_linear_180_62)"/>
<path fill-rule="evenodd" clip-rule="evenodd" d="M74 423L51 338L86 341.993L93.5 379.5L142.5 348.982L181 353L181.5 374.5L135 399L182.5 436L183 455L145.5 444L98 405.5L105.5 433L74 423Z" fill="url(#paint8_linear_180_62)"/>
<path fill-rule="evenodd" clip-rule="evenodd" d="M333 353L332.5 374.5L378 368L372.5 444.5L413.5 431L421 363L457.588 357L463 338L333 353Z" fill="url(#paint9_linear_180_62)"/>
<path d="M191.5 354.028L191.795 375.5L224.398 380.5L224.75 446L192.5 438L193 458L257 477L321 458L321.5 438L289.25 446L289.603 380.5L322 375.5L322.5 354L191.5 354.028Z" fill="url(#paint10_linear_180_62)"/>
<path d="M392.5 103L476.5 105L457.5 209L385.5 195L392.5 103Z" fill="url(#paint11_linear_180_62)"/>
<g opacity="0.5" style="mix-blend-mode:plus-darker">
<path d="M446.5 118L413.5 103.5L434.5 104L452.5 117L430.5 135L434.5 146L422.5 135L446.5 118Z" fill="url(#paint12_linear_180_62)"/>
</g>
<path d="M376.5 306L435.5 329.5L450.5 253L381.5 245L376.5 306Z" fill="url(#paint13_linear_180_62)"/>
<path d="M375.5 331.5L333.5 334L336.5 39L395.5 67L385.5 195L457.5 209L476.5 105L513.5 122L466.5 326L435.5 329.5L447.5 255L381.5 245L375.5 331.5Z" fill="url(#paint14_linear_180_62)"/>
<path d="M359.5 315L333.5 322.5L357 313L361 281L359.5 315Z" fill="black" fill-opacity="0.25"/>
<path d="M362.5 134L391.5 118L390.5 131L368.5 136V154L383.5 163L366.5 156L362.5 134Z" fill="#4B1623"/>
<path d="M333.5 334L287.5 316V39H336.5L333.5 334Z" fill="#67181F"/>
<path d="M333.5 334L287.5 316V39H336.5L333.5 334Z" fill="url(#paint15_linear_180_62)" fill-opacity="0.5" style="mix-blend-mode:soft-light"/>
<path d="M137 58L177 39L180 334L137 331.5L85 146.5V328.5L47 326L0 122L27 110L60 260.5V94L93 78.5L146 257L137 58Z" fill="url(#paint16_linear_180_62)"/>
<path d="M180 334L226 316V39H177L180 334Z" fill="#67181F"/>
<path d="M180 334L226 316V39H177L180 334Z" fill="url(#paint17_linear_180_62)" fill-opacity="0.5" style="mix-blend-mode:soft-light"/>
<path d="M60 110H27L60 260.5V110Z" fill="#67181F"/>
<path d="M60 110H27L60 260.5V110Z" fill="url(#paint18_linear_180_62)" fill-opacity="0.5" style="mix-blend-mode:soft-light"/>
<path d="M131.5 311.5L85 328.5V146.5L131.5 311.5Z" fill="#67181F"/>
<path d="M131.5 311.5L85 328.5V146.5L131.5 311.5Z" fill="url(#paint19_linear_180_62)" fill-opacity="0.5" style="mix-blend-mode:soft-light"/>
<path d="M93 78.5L146 257L138 77L93 78.5Z" fill="#67181F"/>
<path d="M93 78.5L146 257L138 77L93 78.5Z" fill="url(#paint20_linear_180_62)" fill-opacity="0.5" style="mix-blend-mode:soft-light"/>
<path d="M102.5 209L98 193L90.5 199.5L98.5 218L83.5 208.5L73.5 217.5L70 242L78 244.5L82 237L76.5 240.5L77 220L104 230.5L99.5 210.5L102.5 209Z" fill="url(#paint21_linear_180_62)"/>
<path d="M193 299.5L217.5 301.5L218.5 298.5L204 293.5L194 277.5L179.5 287L170 286L173 253L164.5 246L170 255.5L163 287L167 294.5L177 296L191 292.5L193 299.5Z" fill="url(#paint22_linear_180_62)"/>
<path d="M373.5 324L379.5 273L375.5 331.5L333.5 334L334 277L335.5 306L351.5 297L359.5 270L344.5 258L363.5 268L362 273L359 297L338.5 320.5L339.5 328L373.5 324Z" fill="white" fill-opacity="0.3333"/>
<path d="M389.5 240L381.5 245L447.5 255V252L389.5 240Z" fill="white" fill-opacity="0.3333"/>
<path d="M466.5 326L435.5 329.5L441.5 292.5L439.5 325L463.5 321L479.5 269.5L466.5 326Z" fill="white" fill-opacity="0.3333"/>
<path d="M46.5 326L84.5 328.5V274L82 324L48 320.5L32 263L46.5 326Z" fill="white" fill-opacity="0.3333"/>
<path d="M136.5 331.5L119 269L138.5 327L176.5 330L179 287L169.5 286L172.5 253L164 246L173 252.5L170.5 285L179 287L179.5 334L136.5 331.5Z" fill="white" fill-opacity="0.3333"/>
<path d="M83 208.5L84.5 209.5V208.5L83 207.5L72.5 216.5L69.5 242L73 217.5L83 208.5Z" fill="white" fill-opacity="0.3333"/>
<path d="M333 353L332.5 374.5L335 355L460.5 340L461 345L463 338L333 353Z" fill="white" fill-opacity="0.3333"/>
<path d="M191.5 354L192 375.5L194 358L257 356.5L320 358L322 375.5L322.5 354H257H191.5Z" fill="white" fill-opacity="0.3333"/>
<path d="M142.5 349L128 358L142.5 351L179 355.5L181.5 374.5L181 353L142.5 349Z" fill="white" fill-opacity="0.3333"/>
<path d="M51 338L55 353L54 342L84 343.5L89 357L86 342L51 338Z" fill="white" fill-opacity="0.3333"/>
<path d="M135 399L163 424L182.5 436L135 399Z" fill="white" fill-opacity="0.3333"/>
<path d="M289.5 446V449L321.5 438L289.5 446Z" fill="white" fill-opacity="0.3333"/>
<path d="M192.5 438L225 449V446L192.5 438Z" fill="white" fill-opacity="0.3333"/>
<path d="M310 316.5L320 328.5L302.5 322L317 298L333.5 311L353.5 298L359.5 270L344.5 258L362.5 269L357 313L333.5 322.5L321 308L310 316.5Z" fill="url(#paint23_linear_180_62)"/>
<path d="M502.5 130L504.5 161L513.5 122L476.5 105L467 157L479.5 120L502.5 130Z" fill="black" fill-opacity="0.25"/>
<path d="M484.5 208L498.5 187L496 198L484.5 208Z" fill="black" fill-opacity="0.25"/>
<path d="M461.5 187L471.5 180H464.5L465 168L461.5 187Z" fill="black" fill-opacity="0.25"/>
<path d="M392.5 200L385.5 195L457.5 209L456.5 212L392.5 200Z" fill="black" fill-opacity="0.25"/>
<path d="M338.5 51L336 88.5L336.5 39L395.5 67L388.5 156.5L389.5 74L338.5 51Z" fill="black" fill-opacity="0.25"/>
<path d="M341.5 227L334.5 219V209L345.5 220L351.5 217L341.5 227Z" fill="black" fill-opacity="0.25"/>
<path d="M335 186V179L342.5 191L335 186Z" fill="black" fill-opacity="0.25"/>
<path d="M177 39L137 58L140.5 133.5L139 62L162.5 51.5L178.5 171.5L177 39Z" fill="black" fill-opacity="0.25"/>
<path d="M60 94V100L94.5 83.5L93 78.5L60 94Z" fill="black" fill-opacity="0.25"/>
<path d="M27 110L0 122L14.5 185L5.5 126.5L27.5 112L27 110Z" fill="black" fill-opacity="0.25"/>
<path d="M178.5 171.5L167 182L178.5 178V171.5Z" fill="black" fill-opacity="0.25"/>
<path d="M141 144L149 158L153 151L148 167L141.5 156L141 144Z" fill="black" fill-opacity="0.25"/>
<path d="M70 242L78 246.5L82 237L78 244.5L70 242Z" fill="black" fill-opacity="0.25"/>
<path d="M21.5 178L14.5 185L16.5 193.5L21.5 178Z" fill="black" fill-opacity="0.25"/>
<path d="M192.5 438L193 458L257 477L321 458L321.5 438L318 455L257 474L196 455L192.5 438Z" fill="black" fill-opacity="0.25"/>
<path d="M372.5 444.5L413.5 431L416.5 402.5L411.5 428L374.5 440.5L374 421L372.5 444.5Z" fill="black" fill-opacity="0.25"/>
<path d="M74 423L65.5 391.5L75 422.5L100.5 427.5L99.5 411L105.5 433L74 423Z" fill="black" fill-opacity="0.25"/>
<path d="M182.5 436L183 455L145.5 444L98 405.5L146 442.5L178.5 449.5L182.5 436Z" fill="black" fill-opacity="0.25"/>
<path d="M297 144L336 156L339.5 143L361 144L362 140L298 125H216L152 140L153 144L174.5 143L178 156L217 144H257H297Z" fill="black" fill-opacity="0.1"/>
<path d="M231 332L257 334V45.5L146 78.0001L159 133L224 119L231 332Z" fill="url(#paint24_radial_180_62)"/>
<path d="M283 332L257 334V45.5L368 78L355 133L290 119L283 332Z" fill="url(#paint25_radial_180_62)"/>
<path d="M135 74L257 38V45.5L146 78L135 74Z" fill="#703E08"/>
<path d="M379 74L257 38V45.5L368 78L379 74Z" fill="url(#paint26_linear_180_62)"/>
<path d="M152 140L135 74L146 78L159 133L152 140Z" fill="url(#paint27_linear_180_62)"/>
<path d="M362 140L379 74L368 78L355 133L362 140Z" fill="url(#paint28_linear_180_62)"/>
<path d="M216 125L152 140L159 133L224 119L216 125Z" fill="#95500D"/>
<path d="M298 125L362 140L355 133L290 119L298 125Z" fill="url(#paint29_linear_180_62)"/>
<path d="M231 332L224 119L216 125L224 337L231 332Z" fill="url(#paint30_linear_180_62)"/>
<path d="M283 332L290 119L298 125L290 337L283 332Z" fill="#442609"/>
<path d="M149 83L150 95L146 78L257 45.5L368 78L364 95L365 83L262 57L257 116L252 57L149 83Z" fill="url(#paint31_linear_180_62)" style="mix-blend-mode:overlay"/>
<path d="M235 324L257 327L279 324L286 241L283 332L257 334L231 332L228 241L235 324Z" fill="white" fill-opacity="0.5"/>
<path d="M254 47L255 334H259L260 47V46.37L257 45.5L254 46.37V47Z" fill="white" fill-opacity="0.67"/>
<path d="M160 129L159 133L224 119L220 115L160 129Z" fill="url(#paint32_linear_180_62)" style="mix-blend-mode:overlay"/>
<path d="M354 129L355 133L290 119L294 115L354 129Z" fill="url(#paint33_linear_180_62)" style="mix-blend-mode:overlay"/>
<path d="M231 332L257 334L283 332L290 337L257 346L224 337L231 332Z" fill="#703E08"/>
<defs>
<linearGradient id="paint0_linear_180_62" x1="192" y1="293" x2="192" y2="455" gradientUnits="userSpaceOnUse">
<stop stop-color="#203826"/>
<stop offset="1" stop-color="#07140F"/>
</linearGradient>
<linearGradient id="paint1_linear_180_62" x1="257" y1="300" x2="257" y2="454" gradientUnits="userSpaceOnUse">
<stop stop-color="#1A4E3F"/>
<stop offset="1" stop-color="#2F723E"/>
</linearGradient>
<linearGradient id="paint2_linear_180_62" x1="257" y1="300" x2="257" y2="454" gradientUnits="userSpaceOnUse">
<stop stop-color="#1A4E3F"/>
<stop offset="1" stop-color="#2F723E"/>
</linearGradient>
<linearGradient id="paint3_linear_180_62" x1="257" y1="300" x2="257" y2="454" gradientUnits="userSpaceOnUse">
<stop stop-color="#1A4E3F"/>
<stop offset="1" stop-color="#2F723E"/>
</linearGradient>
<linearGradient id="paint4_linear_180_62" x1="257" y1="300" x2="257" y2="454" gradientUnits="userSpaceOnUse">
<stop stop-color="#1A4E3F"/>
<stop offset="1" stop-color="#2F723E"/>
</linearGradient>
<linearGradient id="paint5_linear_180_62" x1="257" y1="300" x2="257" y2="454" gradientUnits="userSpaceOnUse">
<stop stop-color="#1A4E3F"/>
<stop offset="1" stop-color="#2F723E"/>
</linearGradient>
<linearGradient id="paint6_linear_180_62" x1="257" y1="300" x2="257" y2="454" gradientUnits="userSpaceOnUse">
<stop stop-color="#1A4E3F"/>
<stop offset="1" stop-color="#2F723E"/>
</linearGradient>
<linearGradient id="paint7_linear_180_62" x1="257" y1="300" x2="257" y2="454" gradientUnits="userSpaceOnUse">
<stop stop-color="#1A4E3F"/>
<stop offset="1" stop-color="#2F723E"/>
</linearGradient>
<linearGradient id="paint8_linear_180_62" x1="257" y1="338" x2="257" y2="477" gradientUnits="userSpaceOnUse">
<stop stop-color="#DEE7A9"/>
<stop offset="1" stop-color="#86E168"/>
</linearGradient>
<linearGradient id="paint9_linear_180_62" x1="257" y1="338" x2="257" y2="477" gradientUnits="userSpaceOnUse">
<stop stop-color="#DEE7A9"/>
<stop offset="1" stop-color="#86E168"/>
</linearGradient>
<linearGradient id="paint10_linear_180_62" x1="257" y1="338" x2="257" y2="477" gradientUnits="userSpaceOnUse">
<stop stop-color="#DEE7A9"/>
<stop offset="1" stop-color="#86E168"/>
</linearGradient>
<linearGradient id="paint11_linear_180_62" x1="476.5" y1="156" x2="385.5" y2="156" gradientUnits="userSpaceOnUse">
<stop stop-color="#67181F"/>
<stop offset="1" stop-color="#4B1623"/>
</linearGradient>
<linearGradient id="paint12_linear_180_62" x1="433" y1="103.5" x2="433" y2="146" gradientUnits="userSpaceOnUse">
<stop stop-color="#4B1623" stop-opacity="0.5"/>
<stop offset="0.745192" stop-color="#4B1623" stop-opacity="0.25"/>
</linearGradient>
<linearGradient id="paint13_linear_180_62" x1="376.5" y1="286.5" x2="450.5" y2="286.5" gradientUnits="userSpaceOnUse">
<stop stop-color="#4A141F"/>
<stop offset="1" stop-color="#67181F"/>
</linearGradient>
<linearGradient id="paint14_linear_180_62" x1="423.5" y1="111" x2="423.5" y2="334" gradientUnits="userSpaceOnUse">
<stop stop-color="#DF3B2A"/>
<stop offset="1" stop-color="#FEA400"/>
</linearGradient>
<linearGradient id="paint15_linear_180_62" x1="287.5" y1="186.5" x2="336.5" y2="186.5" gradientUnits="userSpaceOnUse">
<stop stop-color="#000080"/>
<stop offset="1" stop-color="#000080" stop-opacity="0"/>
</linearGradient>
<linearGradient id="paint16_linear_180_62" x1="90" y1="111" x2="90" y2="334" gradientUnits="userSpaceOnUse">
<stop stop-color="#DF3B2A"/>
<stop offset="1" stop-color="#FEA400"/>
</linearGradient>
<linearGradient id="paint17_linear_180_62" x1="226" y1="186.5" x2="177" y2="186.5" gradientUnits="userSpaceOnUse">
<stop stop-color="#000080"/>
<stop offset="1" stop-color="#000080" stop-opacity="0"/>
</linearGradient>
<linearGradient id="paint18_linear_180_62" x1="27" y1="185.25" x2="60" y2="185.25" gradientUnits="userSpaceOnUse">
<stop stop-color="#000080" stop-opacity="0"/>
<stop offset="1" stop-color="#000080"/>
</linearGradient>
<linearGradient id="paint19_linear_180_62" x1="85" y1="237.5" x2="131.5" y2="237.5" gradientUnits="userSpaceOnUse">
<stop stop-color="#000080" stop-opacity="0"/>
<stop offset="1" stop-color="#000080"/>
</linearGradient>
<linearGradient id="paint20_linear_180_62" x1="93" y1="167" x2="146" y2="167" gradientUnits="userSpaceOnUse">
<stop stop-color="#000080" stop-opacity="0"/>
<stop offset="1" stop-color="#000080"/>
</linearGradient>
<linearGradient id="paint21_linear_180_62" x1="95" y1="216" x2="104.146" y2="199.524" gradientUnits="userSpaceOnUse">
<stop stop-color="#4B1623"/>
<stop offset="0.413462" stop-color="#4B1623" stop-opacity="0.25"/>
<stop offset="0.802885" stop-color="#4B1623" stop-opacity="0"/>
</linearGradient>
<linearGradient id="paint22_linear_180_62" x1="185" y1="287.5" x2="238.322" y2="292.936" gradientUnits="userSpaceOnUse">
<stop stop-color="#4B1623"/>
<stop offset="0.413462" stop-color="#4B1623" stop-opacity="0.25"/>
<stop offset="0.802885" stop-color="#4B1623" stop-opacity="0"/>
</linearGradient>
<linearGradient id="paint23_linear_180_62" x1="331.5" y1="316.5" x2="312.5" y2="326" gradientUnits="userSpaceOnUse">
<stop stop-color="#4B1623"/>
<stop offset="0.413462" stop-color="#4B1623" stop-opacity="0.25"/>
<stop offset="0.802885" stop-color="#4B1623" stop-opacity="0"/>
</linearGradient>
<radialGradient id="paint24_radial_180_62" cx="0" cy="0" r="1" gradientUnits="userSpaceOnUse" gradientTransform="translate(146 78) rotate(66.5587) scale(279.029 221.637)">
<stop stop-color="#FDFDA1"/>
<stop offset="0.5" stop-color="#FBB320"/>
<stop offset="1" stop-color="#BEBA4E"/>
</radialGradient>
<radialGradient id="paint25_radial_180_62" cx="0" cy="0" r="1" gradientUnits="userSpaceOnUse" gradientTransform="translate(356 53) rotate(109.408) scale(297.929 278.32)">
<stop stop-color="#A48746"/>
<stop offset="0.240385" stop-color="#C57615"/>
<stop offset="0.600962" stop-color="#C25F11"/>
<stop offset="1" stop-color="#875825"/>
</radialGradient>
<linearGradient id="paint26_linear_180_62" x1="379" y1="58" x2="257" y2="58" gradientUnits="userSpaceOnUse">
<stop stop-color="#166548"/>
<stop offset="1" stop-color="#442609"/>
</linearGradient>
<linearGradient id="paint27_linear_180_62" x1="147" y1="74" x2="147" y2="140" gradientUnits="userSpaceOnUse">
<stop stop-color="#FFC02D"/>
<stop offset="1" stop-color="#E7A11C"/>
</linearGradient>
<linearGradient id="paint28_linear_180_62" x1="367" y1="74" x2="367" y2="140" gradientUnits="userSpaceOnUse">
<stop stop-color="#153C2A"/>
<stop offset="1" stop-color="#193926"/>
</linearGradient>
<linearGradient id="paint29_linear_180_62" x1="362" y1="129.5" x2="290" y2="129.5" gradientUnits="userSpaceOnUse">
<stop stop-color="#166548"/>
<stop offset="1" stop-color="#4B2C0E"/>
</linearGradient>
<linearGradient id="paint30_linear_180_62" x1="223.5" y1="119" x2="223.5" y2="337" gradientUnits="userSpaceOnUse">
<stop stop-color="#CB7010"/>
<stop offset="0.5" stop-color="#AA5906"/>
<stop offset="1" stop-color="#CB7010"/>
</linearGradient>
<linearGradient id="paint31_linear_180_62" x1="146" y1="81.5" x2="368" y2="81.5" gradientUnits="userSpaceOnUse">
<stop stop-color="white"/>
<stop offset="0.5" stop-color="#CBCBCB"/>
<stop offset="1" stop-color="white"/>
</linearGradient>
<linearGradient id="paint32_linear_180_62" x1="159" y1="133" x2="257" y2="111.5" gradientUnits="userSpaceOnUse">
<stop stop-color="white"/>
<stop offset="1" stop-color="#B6B6B6" stop-opacity="0.75"/>
</linearGradient>
<linearGradient id="paint33_linear_180_62" x1="355" y1="133" x2="257" y2="111.5" gradientUnits="userSpaceOnUse">
<stop stop-color="white"/>
<stop offset="1" stop-color="#B6B6B6" stop-opacity="0.75"/>
</linearGradient>
</defs>
</svg>
