<svg width="514" height="438" viewBox="0 0 514 438" fill="none" xmlns="http://www.w3.org/2000/svg">
<g clip-path="url(#clip0_180_62)">
<path d="M74 384L51 299L155.5 254H257L333 314L332.5 335.5L257 322.5L183 416L145.5 405L120.5 381.5L105.5 394L74 384Z" fill="url(#paint0_linear_180_62)"/>
<path d="M333 314L284 288.5L290 298L277.875 295.5L261 282L367.5 261L463 299L333 314Z" fill="url(#paint1_linear_180_62)"/>
<path d="M142.5 310L208 275H236L181 314L142.5 310Z" fill="url(#paint2_linear_180_62)"/>
<path d="M182.5 397L135 360L181.5 335.5L225 302.5L232.5 341L182.5 397Z" fill="url(#paint3_linear_180_62)"/>
<path d="M86 303L155 267H116L51 299L86 303Z" fill="url(#paint4_linear_180_62)"/>
<path d="M290 298L277.875 295.5H228.5L191.5 315L257 322.5L322.5 315L290 298Z" fill="url(#paint5_linear_180_62)"/>
<path d="M372.5 405.5L289.5 355V341L322 330L332.5 335.5L378 329L372.5 405.5Z" fill="url(#paint6_linear_180_62)"/>
<path d="M192.5 399L226 362H289.5L321.5 399L257 415L192.5 399Z" fill="url(#paint7_linear_180_62)"/>
<path fill-rule="evenodd" clip-rule="evenodd" d="M74 384L51 299L86 302.993L93.5 340.5L142.5 309.982L181 314L181.5 335.5L135 360L182.5 397L183 416L145.5 405L98 366.5L105.5 394L74 384Z" fill="url(#paint8_linear_180_62)"/>
<path fill-rule="evenodd" clip-rule="evenodd" d="M333 314L332.5 335.5L378 329L372.5 405.5L413.5 392L421 324L457.588 318L463 299L333 314Z" fill="url(#paint9_linear_180_62)"/>
<path d="M191.5 315.028L191.795 336.5L224.398 341.5L224.75 407L192.5 399L193 419L257 438L321 419L321.5 399L289.25 407L289.603 341.5L322 336.5L322.5 315L191.5 315.028Z" fill="url(#paint10_linear_180_62)"/>
<path d="M392.5 64L476.5 66L457.5 170L385.5 156L392.5 64Z" fill="url(#paint11_linear_180_62)"/>
<g opacity="0.5" style="mix-blend-mode:plus-darker">
<path d="M446.5 79L413.5 64.5L434.5 65L452.5 78L430.5 96L434.5 107L422.5 96L446.5 79Z" fill="url(#paint12_linear_180_62)"/>
</g>
<path d="M376.5 267L435.5 290.5L450.5 214L381.5 206L376.5 267Z" fill="url(#paint13_linear_180_62)"/>
<path d="M375.5 292.5L333.5 295L336.5 0L395.5 28L385.5 156L457.5 170L476.5 66L513.5 83L466.5 287L435.5 290.5L447.5 216L381.5 206L375.5 292.5Z" fill="url(#paint14_linear_180_62)"/>
<path d="M359.5 276L333.5 283.5L357 274L361 242L359.5 276Z" fill="black" fill-opacity="0.25"/>
<path d="M362.5 95L391.5 79L390.5 92L368.5 97V115L383.5 124L366.5 117L362.5 95Z" fill="#4B1623"/>
<path d="M333.5 295L287.5 277V0H336.5L333.5 295Z" fill="#67181F"/>
<path d="M333.5 295L287.5 277V0H336.5L333.5 295Z" fill="url(#paint15_linear_180_62)" fill-opacity="0.5" style="mix-blend-mode:soft-light"/>
<path d="M137 19L177 0L180 295L137 292.5L85 107.5V289.5L47 287L0 83L27 71L60 221.5V55L93 39.5L146 218L137 19Z" fill="url(#paint16_linear_180_62)"/>
<path d="M180 295L226 277V0H177L180 295Z" fill="#67181F"/>
<path d="M180 295L226 277V0H177L180 295Z" fill="url(#paint17_linear_180_62)" fill-opacity="0.5" style="mix-blend-mode:soft-light"/>
<path d="M60 71H27L60 221.5V71Z" fill="#67181F"/>
<path d="M60 71H27L60 221.5V71Z" fill="url(#paint18_linear_180_62)" fill-opacity="0.5" style="mix-blend-mode:soft-light"/>
<path d="M131.5 272.5L85 289.5V107.5L131.5 272.5Z" fill="#67181F"/>
<path d="M131.5 272.5L85 289.5V107.5L131.5 272.5Z" fill="url(#paint19_linear_180_62)" fill-opacity="0.5" style="mix-blend-mode:soft-light"/>
<path d="M93 39.5L146 218L138 38L93 39.5Z" fill="#67181F"/>
<path d="M93 39.5L146 218L138 38L93 39.5Z" fill="url(#paint20_linear_180_62)" fill-opacity="0.5" style="mix-blend-mode:soft-light"/>
<path d="M102.5 170L98 154L90.5 160.5L98.5 179L83.5 169.5L73.5 178.5L70 203L78 205.5L82 198L76.5 201.5L77 181L104 191.5L99.5 171.5L102.5 170Z" fill="url(#paint21_linear_180_62)"/>
<path d="M193 260.5L217.5 262.5L218.5 259.5L204 254.5L194 238.5L179.5 248L170 247L173 214L164.5 207L170 216.5L163 248L167 255.5L177 257L191 253.5L193 260.5Z" fill="url(#paint22_linear_180_62)"/>
<path d="M373.5 285L379.5 234L375.5 292.5L333.5 295L334 238L335.5 267L351.5 258L359.5 231L344.5 219L363.5 229L362 234L359 258L338.5 281.5L339.5 289L373.5 285Z" fill="white" fill-opacity="0.3333"/>
<path d="M389.5 201L381.5 206L447.5 216V213L389.5 201Z" fill="white" fill-opacity="0.3333"/>
<path d="M466.5 287L435.5 290.5L441.5 253.5L439.5 286L463.5 282L479.5 230.5L466.5 287Z" fill="white" fill-opacity="0.3333"/>
<path d="M46.5 287L84.5 289.5V235L82 285L48 281.5L32 224L46.5 287Z" fill="white" fill-opacity="0.3333"/>
<path d="M136.5 292.5L119 230L138.5 288L176.5 291L179 248L169.5 247L172.5 214L164 207L173 213.5L170.5 246L179 248L179.5 295L136.5 292.5Z" fill="white" fill-opacity="0.3333"/>
<path d="M83 169.5L84.5 170.5V169.5L83 168.5L72.5 177.5L69.5 203L73 178.5L83 169.5Z" fill="white" fill-opacity="0.3333"/>
<path d="M333 314L332.5 335.5L335 316L460.5 301L461 306L463 299L333 314Z" fill="white" fill-opacity="0.3333"/>
<path d="M191.5 315L192 336.5L194 319L257 317.5L320 319L322 336.5L322.5 315H257H191.5Z" fill="white" fill-opacity="0.3333"/>
<path d="M142.5 310L128 319L142.5 312L179 316.5L181.5 335.5L181 314L142.5 310Z" fill="white" fill-opacity="0.3333"/>
<path d="M51 299L55 314L54 303L84 304.5L89 318L86 303L51 299Z" fill="white" fill-opacity="0.3333"/>
<path d="M135 360L163 385L182.5 397L135 360Z" fill="white" fill-opacity="0.3333"/>
<path d="M289.5 407V410L321.5 399L289.5 407Z" fill="white" fill-opacity="0.3333"/>
<path d="M192.5 399L225 410V407L192.5 399Z" fill="white" fill-opacity="0.3333"/>
<path d="M310 277.5L320 289.5L302.5 283L317 259L333.5 272L353.5 259L359.5 231L344.5 219L362.5 230L357 274L333.5 283.5L321 269L310 277.5Z" fill="url(#paint23_linear_180_62)"/>
<path d="M502.5 91L504.5 122L513.5 83L476.5 66L467 118L479.5 81L502.5 91Z" fill="black" fill-opacity="0.25"/>
<path d="M484.5 169L498.5 148L496 159L484.5 169Z" fill="black" fill-opacity="0.25"/>
<path d="M461.5 148L471.5 141H464.5L465 129L461.5 148Z" fill="black" fill-opacity="0.25"/>
<path d="M392.5 161L385.5 156L457.5 170L456.5 173L392.5 161Z" fill="black" fill-opacity="0.25"/>
<path d="M338.5 12L336 49.5L336.5 0L395.5 28L388.5 117.5L389.5 35L338.5 12Z" fill="black" fill-opacity="0.25"/>
<path d="M341.5 188L334.5 180V170L345.5 181L351.5 178L341.5 188Z" fill="black" fill-opacity="0.25"/>
<path d="M335 147V140L342.5 152L335 147Z" fill="black" fill-opacity="0.25"/>
<path d="M177 0L137 19L140.5 94.5L139 23L162.5 12.5L178.5 132.5L177 0Z" fill="black" fill-opacity="0.25"/>
<path d="M60 55V61L94.5 44.5L93 39.5L60 55Z" fill="black" fill-opacity="0.25"/>
<path d="M27 71L0 83L14.5 146L5.5 87.5L27.5 73L27 71Z" fill="black" fill-opacity="0.25"/>
<path d="M178.5 132.5L167 143L178.5 139V132.5Z" fill="black" fill-opacity="0.25"/>
<path d="M141 105L149 119L153 112L148 128L141.5 117L141 105Z" fill="black" fill-opacity="0.25"/>
<path d="M70 203L78 207.5L82 198L78 205.5L70 203Z" fill="black" fill-opacity="0.25"/>
<path d="M21.5 139L14.5 146L16.5 154.5L21.5 139Z" fill="black" fill-opacity="0.25"/>
<path d="M192.5 399L193 419L257 438L321 419L321.5 399L318 416L257 435L196 416L192.5 399Z" fill="black" fill-opacity="0.25"/>
<path d="M372.5 405.5L413.5 392L416.5 363.5L411.5 389L374.5 401.5L374 382L372.5 405.5Z" fill="black" fill-opacity="0.25"/>
<path d="M74 384L65.5 352.5L75 383.5L100.5 388.5L99.5 372L105.5 394L74 384Z" fill="black" fill-opacity="0.25"/>
<path d="M182.5 397L183 416L145.5 405L98 366.5L146 403.5L178.5 410.5L182.5 397Z" fill="black" fill-opacity="0.25"/>
<path d="M297 105L336 117L339.5 104L361 105L362 101L298 86H216L152 101L153 105L174.5 104L178 117L217 105H257H297Z" fill="black" fill-opacity="0.1"/>
<path d="M231 293L257 295V6.5L146 39.0001L159 94.0001L224 80.0001L231 293Z" fill="url(#paint24_radial_180_62)"/>
<path d="M283 293L257 295V6.5L368 39L355 94L290 80L283 293Z" fill="url(#paint25_radial_180_62)"/>
<path d="M135 35L257 -1V6.5L146 39L135 35Z" fill="#703E08"/>
<path d="M379 35L257 -1V6.5L368 39L379 35Z" fill="url(#paint26_linear_180_62)"/>
<path d="M152 101L135 35L146 39L159 94L152 101Z" fill="url(#paint27_linear_180_62)"/>
<path d="M362 101L379 35L368 39L355 94L362 101Z" fill="url(#paint28_linear_180_62)"/>
<path d="M216 86L152 101L159 94L224 80L216 86Z" fill="#95500D"/>
<path d="M298 86L362 101L355 94L290 80L298 86Z" fill="url(#paint29_linear_180_62)"/>
<path d="M231 293L224 80L216 86L224 298L231 293Z" fill="url(#paint30_linear_180_62)"/>
<path d="M283 293L290 80L298 86L290 298L283 293Z" fill="#442609"/>
<path d="M149 44L150 56L146 39L257 6.5L368 39L364 56L365 44L262 18L257 77L252 18L149 44Z" fill="url(#paint31_linear_180_62)" style="mix-blend-mode:overlay"/>
<path d="M235 285L257 288L279 285L286 202L283 293L257 295L231 293L228 202L235 285Z" fill="white" fill-opacity="0.5"/>
<path d="M254 8L255 295H259L260 8V7.37L257 6.5L254 7.37V8Z" fill="white" fill-opacity="0.67"/>
<path d="M160 90L159 94L224 80L220 76L160 90Z" fill="url(#paint32_linear_180_62)" style="mix-blend-mode:overlay"/>
<path d="M354 90L355 94L290 80L294 76L354 90Z" fill="url(#paint33_linear_180_62)" style="mix-blend-mode:overlay"/>
<path d="M231 293L257 295L283 293L290 298L257 307L224 298L231 293Z" fill="#703E08"/>
</g>
<defs>
<linearGradient id="paint0_linear_180_62" x1="192" y1="254" x2="192" y2="416" gradientUnits="userSpaceOnUse">
<stop stop-color="#203826"/>
<stop offset="1" stop-color="#07140F"/>
</linearGradient>
<linearGradient id="paint1_linear_180_62" x1="257" y1="261" x2="257" y2="415" gradientUnits="userSpaceOnUse">
<stop stop-color="#1A4E3F"/>
<stop offset="1" stop-color="#2F723E"/>
</linearGradient>
<linearGradient id="paint2_linear_180_62" x1="257" y1="261" x2="257" y2="415" gradientUnits="userSpaceOnUse">
<stop stop-color="#1A4E3F"/>
<stop offset="1" stop-color="#2F723E"/>
</linearGradient>
<linearGradient id="paint3_linear_180_62" x1="257" y1="261" x2="257" y2="415" gradientUnits="userSpaceOnUse">
<stop stop-color="#1A4E3F"/>
<stop offset="1" stop-color="#2F723E"/>
</linearGradient>
<linearGradient id="paint4_linear_180_62" x1="257" y1="261" x2="257" y2="415" gradientUnits="userSpaceOnUse">
<stop stop-color="#1A4E3F"/>
<stop offset="1" stop-color="#2F723E"/>
</linearGradient>
<linearGradient id="paint5_linear_180_62" x1="257" y1="261" x2="257" y2="415" gradientUnits="userSpaceOnUse">
<stop stop-color="#1A4E3F"/>
<stop offset="1" stop-color="#2F723E"/>
</linearGradient>
<linearGradient id="paint6_linear_180_62" x1="257" y1="261" x2="257" y2="415" gradientUnits="userSpaceOnUse">
<stop stop-color="#1A4E3F"/>
<stop offset="1" stop-color="#2F723E"/>
</linearGradient>
<linearGradient id="paint7_linear_180_62" x1="257" y1="261" x2="257" y2="415" gradientUnits="userSpaceOnUse">
<stop stop-color="#1A4E3F"/>
<stop offset="1" stop-color="#2F723E"/>
</linearGradient>
<linearGradient id="paint8_linear_180_62" x1="257" y1="299" x2="257" y2="438" gradientUnits="userSpaceOnUse">
<stop stop-color="#DEE7A9"/>
<stop offset="1" stop-color="#86E168"/>
</linearGradient>
<linearGradient id="paint9_linear_180_62" x1="257" y1="299" x2="257" y2="438" gradientUnits="userSpaceOnUse">
<stop stop-color="#DEE7A9"/>
<stop offset="1" stop-color="#86E168"/>
</linearGradient>
<linearGradient id="paint10_linear_180_62" x1="257" y1="299" x2="257" y2="438" gradientUnits="userSpaceOnUse">
<stop stop-color="#DEE7A9"/>
<stop offset="1" stop-color="#86E168"/>
</linearGradient>
<linearGradient id="paint11_linear_180_62" x1="476.5" y1="117" x2="385.5" y2="117" gradientUnits="userSpaceOnUse">
<stop stop-color="#67181F"/>
<stop offset="1" stop-color="#4B1623"/>
</linearGradient>
<linearGradient id="paint12_linear_180_62" x1="433" y1="64.5" x2="433" y2="107" gradientUnits="userSpaceOnUse">
<stop stop-color="#4B1623" stop-opacity="0.5"/>
<stop offset="0.745192" stop-color="#4B1623" stop-opacity="0.25"/>
</linearGradient>
<linearGradient id="paint13_linear_180_62" x1="376.5" y1="247.5" x2="450.5" y2="247.5" gradientUnits="userSpaceOnUse">
<stop stop-color="#4A141F"/>
<stop offset="1" stop-color="#67181F"/>
</linearGradient>
<linearGradient id="paint14_linear_180_62" x1="423.5" y1="72" x2="423.5" y2="295" gradientUnits="userSpaceOnUse">
<stop stop-color="#DF3B2A"/>
<stop offset="1" stop-color="#FEA400"/>
</linearGradient>
<linearGradient id="paint15_linear_180_62" x1="287.5" y1="147.5" x2="336.5" y2="147.5" gradientUnits="userSpaceOnUse">
<stop stop-color="#000080"/>
<stop offset="1" stop-color="#000080" stop-opacity="0"/>
</linearGradient>
<linearGradient id="paint16_linear_180_62" x1="90" y1="72" x2="90" y2="295" gradientUnits="userSpaceOnUse">
<stop stop-color="#DF3B2A"/>
<stop offset="1" stop-color="#FEA400"/>
</linearGradient>
<linearGradient id="paint17_linear_180_62" x1="226" y1="147.5" x2="177" y2="147.5" gradientUnits="userSpaceOnUse">
<stop stop-color="#000080"/>
<stop offset="1" stop-color="#000080" stop-opacity="0"/>
</linearGradient>
<linearGradient id="paint18_linear_180_62" x1="27" y1="146.25" x2="60" y2="146.25" gradientUnits="userSpaceOnUse">
<stop stop-color="#000080" stop-opacity="0"/>
<stop offset="1" stop-color="#000080"/>
</linearGradient>
<linearGradient id="paint19_linear_180_62" x1="85" y1="198.5" x2="131.5" y2="198.5" gradientUnits="userSpaceOnUse">
<stop stop-color="#000080" stop-opacity="0"/>
<stop offset="1" stop-color="#000080"/>
</linearGradient>
<linearGradient id="paint20_linear_180_62" x1="93" y1="128" x2="146" y2="128" gradientUnits="userSpaceOnUse">
<stop stop-color="#000080" stop-opacity="0"/>
<stop offset="1" stop-color="#000080"/>
</linearGradient>
<linearGradient id="paint21_linear_180_62" x1="95" y1="177" x2="104.146" y2="160.524" gradientUnits="userSpaceOnUse">
<stop stop-color="#4B1623"/>
<stop offset="0.413462" stop-color="#4B1623" stop-opacity="0.25"/>
<stop offset="0.802885" stop-color="#4B1623" stop-opacity="0"/>
</linearGradient>
<linearGradient id="paint22_linear_180_62" x1="185" y1="248.5" x2="238.322" y2="253.936" gradientUnits="userSpaceOnUse">
<stop stop-color="#4B1623"/>
<stop offset="0.413462" stop-color="#4B1623" stop-opacity="0.25"/>
<stop offset="0.802885" stop-color="#4B1623" stop-opacity="0"/>
</linearGradient>
<linearGradient id="paint23_linear_180_62" x1="331.5" y1="277.5" x2="312.5" y2="287" gradientUnits="userSpaceOnUse">
<stop stop-color="#4B1623"/>
<stop offset="0.413462" stop-color="#4B1623" stop-opacity="0.25"/>
<stop offset="0.802885" stop-color="#4B1623" stop-opacity="0"/>
</linearGradient>
<radialGradient id="paint24_radial_180_62" cx="0" cy="0" r="1" gradientUnits="userSpaceOnUse" gradientTransform="translate(146 39) rotate(66.5587) scale(279.029 221.637)">
<stop stop-color="#FDFDA1"/>
<stop offset="0.5" stop-color="#FBB320"/>
<stop offset="1" stop-color="#BEBA4E"/>
</radialGradient>
<radialGradient id="paint25_radial_180_62" cx="0" cy="0" r="1" gradientUnits="userSpaceOnUse" gradientTransform="translate(356 14) rotate(109.408) scale(297.929 278.32)">
<stop stop-color="#A48746"/>
<stop offset="0.240385" stop-color="#C57615"/>
<stop offset="0.600962" stop-color="#C25F11"/>
<stop offset="1" stop-color="#875825"/>
</radialGradient>
<linearGradient id="paint26_linear_180_62" x1="379" y1="19" x2="257" y2="19" gradientUnits="userSpaceOnUse">
<stop stop-color="#166548"/>
<stop offset="1" stop-color="#442609"/>
</linearGradient>
<linearGradient id="paint27_linear_180_62" x1="147" y1="35" x2="147" y2="101" gradientUnits="userSpaceOnUse">
<stop stop-color="#FFC02D"/>
<stop offset="1" stop-color="#E7A11C"/>
</linearGradient>
<linearGradient id="paint28_linear_180_62" x1="367" y1="35" x2="367" y2="101" gradientUnits="userSpaceOnUse">
<stop stop-color="#153C2A"/>
<stop offset="1" stop-color="#193926"/>
</linearGradient>
<linearGradient id="paint29_linear_180_62" x1="362" y1="90.5" x2="290" y2="90.5" gradientUnits="userSpaceOnUse">
<stop stop-color="#166548"/>
<stop offset="1" stop-color="#4B2C0E"/>
</linearGradient>
<linearGradient id="paint30_linear_180_62" x1="223.5" y1="80" x2="223.5" y2="298" gradientUnits="userSpaceOnUse">
<stop stop-color="#CB7010"/>
<stop offset="0.5" stop-color="#AA5906"/>
<stop offset="1" stop-color="#CB7010"/>
</linearGradient>
<linearGradient id="paint31_linear_180_62" x1="146" y1="42.5" x2="368" y2="42.5" gradientUnits="userSpaceOnUse">
<stop stop-color="white"/>
<stop offset="0.5" stop-color="#CBCBCB"/>
<stop offset="1" stop-color="white"/>
</linearGradient>
<linearGradient id="paint32_linear_180_62" x1="159" y1="94" x2="257" y2="72.5" gradientUnits="userSpaceOnUse">
<stop stop-color="white"/>
<stop offset="1" stop-color="#B6B6B6" stop-opacity="0.75"/>
</linearGradient>
<linearGradient id="paint33_linear_180_62" x1="355" y1="94" x2="257" y2="72.5" gradientUnits="userSpaceOnUse">
<stop stop-color="white"/>
<stop offset="1" stop-color="#B6B6B6" stop-opacity="0.75"/>
</linearGradient>
<clipPath id="clip0_180_62">
<rect width="514" height="438" fill="white"/>
</clipPath>
</defs>
</svg>
